<mxfile host="65bd71144e">
    <diagram id="aLzMhM4a0jQpsZ0VHWi8" name="Page-1">
        <mxGraphModel dx="1847" dy="847" grid="1" gridSize="10" guides="1" tooltips="1" connect="1" arrows="1" fold="1" page="1" pageScale="1" pageWidth="850" pageHeight="1100" math="0" shadow="0">
            <root>
                <mxCell id="0"/>
                <mxCell id="1" parent="0"/>
                <mxCell id="2" value="" style="ellipse;whiteSpace=wrap;html=1;fillColor=#dae8fc;strokeColor=#6c8ebf;verticalAlign=bottom;fontSize=18;fontStyle=1" vertex="1" parent="1">
                    <mxGeometry x="60" y="140" width="700" height="460" as="geometry"/>
                </mxCell>
                <mxCell id="3" value="" style="ellipse;shape=cloud;whiteSpace=wrap;html=1;fillColor=#fff2cc;strokeColor=#d6b656;fontSize=20;verticalAlign=bottom;labelBackgroundColor=none;fillStyle=dots;strokeWidth=4;" vertex="1" parent="1">
                    <mxGeometry y="130" width="890" height="410" as="geometry"/>
                </mxCell>
                <mxCell id="4" value="Надёжная система типов" style="ellipse;whiteSpace=wrap;html=1;fillColor=#d5e8d4;strokeColor=#82b366;fontSize=20;fontStyle=1" vertex="1" parent="1">
                    <mxGeometry x="190" y="210" width="442.5" height="210" as="geometry"/>
                </mxCell>
                <mxCell id="5" value="Семантика" style="text;html=1;align=center;verticalAlign=middle;whiteSpace=wrap;rounded=0;fontSize=20;fontStyle=1" vertex="1" parent="1">
                    <mxGeometry x="450" y="440" width="180" height="30" as="geometry"/>
                </mxCell>
                <mxCell id="6" value="Слабая система типов" style="text;html=1;align=center;verticalAlign=middle;whiteSpace=wrap;rounded=0;fontSize=20;fontStyle=1" vertex="1" parent="1">
                    <mxGeometry x="190" y="520" width="316.25" height="30" as="geometry"/>
                </mxCell>
            </root>
        </mxGraphModel>
    </diagram>
</mxfile>